<svg xmlns="http://www.w3.org/2000/svg" version="1.1" xmlns:xlink="http://www.w3.org/1999/xlink" xmlns:svgjs="http://svgjs.dev/svgjs" width="1000" height="1000"><g clip-path="url(#SvgjsClipPath1124)"><rect width="1000" height="1000" fill="#ffffff"></rect><g transform="matrix(1.953125,0,0,1.953125,0,0)"><svg xmlns="http://www.w3.org/2000/svg" version="1.1" xmlns:xlink="http://www.w3.org/1999/xlink" xmlns:svgjs="http://svgjs.dev/svgjs" width="512" height="512"><svg width="512" height="512" viewBox="0 0 135.46666 135.46667" version="1.1" id="svg1" inkscape:version="1.4 (86a8ad7, 2024-10-11)" sodipodi:docname="sublet.svg" xmlns:inkscape="http://www.inkscape.org/namespaces/inkscape" xmlns:sodipodi="http://sodipodi.sourceforge.net/DTD/sodipodi-0.dtd" xmlns="http://www.w3.org/2000/svg" xmlns:svg="http://www.w3.org/2000/svg">
  <sodipodi:namedview id="namedview1" pagecolor="#ffffff" bordercolor="#000000" borderopacity="0.25" inkscape:showpageshadow="2" inkscape:pageopacity="0.0" inkscape:pagecheckerboard="0" inkscape:deskcolor="#d1d1d1" inkscape:document-units="mm" inkscape:zoom="1.2025329" inkscape:cx="780.43603" inkscape:cy="560.89942" inkscape:window-width="3840" inkscape:window-height="2089" inkscape:window-x="-8" inkscape:window-y="1362" inkscape:window-maximized="1" inkscape:current-layer="layer1"></sodipodi:namedview>
  <defs id="defs1"><clipPath id="SvgjsClipPath1124"><rect width="1000" height="1000" x="0" y="0" rx="300" ry="300"></rect></clipPath></defs>
  <g inkscape:label="Layer 1" inkscape:groupmode="layer" id="layer1">
    <text xml:space="preserve" style="font-size:70.5556px;font-family:Peralta;-inkscape-font-specification:Peralta;text-align:start;writing-mode:lr-tb;direction:ltr;text-anchor:start;fill:#ffffff;stroke:#000000;stroke-width:0.529167;stroke-linejoin:round" x="53.905315" y="110.4509" id="text1" svgjs:data="{&quot;leading&quot;:&quot;1.3&quot;}"><tspan sodipodi:role="line" id="tspan1" style="fill:#ffffff;stroke:#000000;stroke-width:0.529167" x="53.905315" y="110.4509"></tspan></text>
    <g id="text2" style="font-size:183.511px;font-family:Montserrat;-inkscape-font-specification:Montserrat;fill:#ffffff;stroke:#000000;stroke-width:0.91756;stroke-linejoin:round" transform="scale(0.57551304,1.7375801)" aria-label="_..">
      <path style="-inkscape-font-specification:'Gentium Book Basic';fill:#808080;stroke:none" d="m 112.58924,52.822996 q -0.17921,0.985655 -0.53763,2.15052 -0.35842,1.164864 -0.80644,2.329729 -0.44803,1.25447 -0.89605,2.32973 -0.44803,1.164864 -0.80645,1.971309 H 38.754738 L 36.245799,59.00574 q 0.448025,-1.7921 1.433679,-4.301039 0.985655,-2.50894 1.7921,-4.301039 h 70.787932 z" id="path4"></path>
      <g id="path5">
        <path style="-inkscape-font-specification:'Gentium Book Basic';fill:#000000;stroke:none;stroke-linejoin:miter" d="m 153.80754,27.375181 q 0,3.22578 -1.07526,6.003534 -1.07526,2.68815 -2.95697,4.659459 -1.7921,1.97131 -4.30104,3.04657 -2.50894,1.164864 -5.3763,1.164864 -4.92827,0 -7.61642,-2.688149 -2.68815,-2.68815 -2.68815,-8.064448 0,-3.22578 1.07526,-5.913929 1.16487,-2.68815 3.04657,-4.659459 1.88171,-2.060915 4.39064,-3.136175 2.50894,-1.164864 5.2867,-1.164864 4.65946,0 7.43721,2.688149 2.77776,2.68815 2.77776,8.064448 z m 44.53367,0 q 0,3.22578 -1.07526,6.003534 -1.07526,2.68815 -2.95696,4.659459 -1.7921,1.97131 -4.30104,3.04657 -2.50894,1.164864 -5.3763,1.164864 -4.92827,0 -7.61642,-2.688149 -2.68815,-2.68815 -2.68815,-8.064448 0,-3.22578 1.07526,-5.913929 1.16486,-2.68815 3.04657,-4.659459 1.8817,-2.060915 4.39064,-3.136175 2.50894,-1.164864 5.28669,-1.164864 4.65946,0 7.43722,2.688149 2.77775,2.68815 2.77775,8.064448 z" id="path6"></path>
        <path style="-inkscape-font-specification:'Gentium Book Basic';fill:#000000;stroke:none;stroke-linejoin:miter" d="m 143.5918,16.164062 c -1.9145,0 -3.7445,0.4025 -5.47461,1.205079 -0.001,6.16e-4 -0.003,0.0013 -0.004,0.002 -1.72358,0.740706 -3.23784,1.824131 -4.5293,3.236328 -6.2e-4,6.58e-4 -0.001,0.0013 -0.002,0.002 -0.002,0.0021 -0.004,0.0038 -0.006,0.0059 -1.29026,1.353666 -2.3343,2.95147 -3.1289,4.785157 a 0.45882587,0.45882587 0 0 0 -0.004,0.01172 c -0.74034,1.850854 -1.10938,3.882489 -1.10938,6.083985 0,3.660662 0.92203,6.490389 2.82227,8.390625 1.89122,1.891223 4.57248,2.822265 7.94141,2.822265 1.96855,0 3.82731,-0.402625 5.55664,-1.203125 l 0.006,-0.0039 c 1.72329,-0.739608 3.21183,-1.789857 4.44726,-3.146484 l 0.002,-0.002 c 1.29536,-1.357557 2.31244,-2.963705 3.04883,-4.804688 a 0.45882587,0.45882587 0 0 0 0.002,-0.0039 c 0.73842,-1.907591 1.10547,-3.968426 1.10546,-6.169922 0,-3.663211 -0.95434,-6.49614 -2.91601,-8.394531 -1.94395,-1.881247 -4.56328,-2.816406 -7.75781,-2.816407 z m 44.53515,0 c -1.91449,0 -3.74645,0.4025 -5.47656,1.205079 -0.001,6.16e-4 -0.003,0.0013 -0.004,0.002 -1.72358,0.740706 -3.23784,1.82413 -4.52929,3.236328 -6.3e-4,6.58e-4 -0.001,0.0013 -0.002,0.002 -0.002,0.0021 -0.004,0.0038 -0.006,0.0059 -1.29026,1.353666 -2.33431,2.951471 -3.1289,4.785157 a 0.45882587,0.45882587 0 0 0 -0.004,0.01172 c -0.74034,1.850854 -1.10742,3.882489 -1.10742,6.083985 0,3.660662 0.92203,6.490389 2.82227,8.390625 1.89122,1.891223 4.57052,2.822265 7.93945,2.822265 1.9722,0 3.83435,-0.403566 5.56641,-1.207031 1.72261,-0.739572 3.2083,-1.790279 4.44335,-3.146484 l 0.002,-0.002 c 1.29534,-1.357557 2.31243,-2.963706 3.04883,-4.804688 a 0.45882587,0.45882587 0 0 0 0.002,-0.0039 c 0.73842,-1.907591 1.10742,-3.968426 1.10742,-6.169922 0,-3.663211 -0.9563,-6.49614 -2.91797,-8.394531 -1.94396,-1.881247 -4.56132,-2.816406 -7.75586,-2.816407 z m -44.53515,0.917969 c 3.01808,0 5.35942,0.855642 7.11914,2.558594 1.742,1.685809 2.63867,4.229189 2.63867,7.734375 0,2.099544 -0.34967,4.04181 -1.04492,5.837891 -0.69678,1.740542 -1.64961,3.238392 -2.86133,4.507812 a 0.45882587,0.45882587 0 0 0 -0.008,0.0098 c -1.15098,1.266076 -2.52691,2.239208 -4.14258,2.93164 a 0.45882587,0.45882587 0 0 0 -0.0117,0.0059 c -1.61208,0.748465 -3.33415,1.123047 -5.18359,1.123047 -3.2021,0 -5.59804,-0.861713 -7.29102,-2.554688 -1.68396,-1.683964 -2.55469,-4.232499 -2.55469,-7.740234 0,-2.097267 0.34918,-4.004479 1.04102,-5.736328 0.75662,-1.744042 1.74146,-3.248122 2.95508,-4.519532 a 0.45882587,0.45882587 0 0 0 0.006,-0.0078 c 1.2128,-1.328305 2.61917,-2.332044 4.23242,-3.023438 a 0.45882587,0.45882587 0 0 0 0.0137,-0.0059 c 1.61397,-0.749343 3.30409,-1.121094 5.0918,-1.121094 z m 44.53515,0 c 3.01808,0 5.35747,0.855642 7.11719,2.558594 1.742,1.685809 2.63867,4.229188 2.63867,7.734375 0,2.099544 -0.34966,4.04181 -1.04492,5.837891 -0.69678,1.740542 -1.64961,3.238392 -2.86133,4.507812 a 0.45882587,0.45882587 0 0 0 -0.008,0.0098 c -1.15098,1.266076 -2.52495,2.239208 -4.14063,2.93164 a 0.45882587,0.45882587 0 0 0 -0.0137,0.0059 c -1.61208,0.748465 -3.33414,1.123047 -5.18359,1.123047 -3.2021,0 -5.59804,-0.861713 -7.29102,-2.554688 -1.68396,-1.683964 -2.55468,-4.232499 -2.55468,-7.740234 0,-2.094989 0.34872,-4.000117 1.03906,-5.730469 l 0.002,-0.002 c 0.75686,-1.74583 1.74048,-3.251007 2.95508,-4.523438 a 0.45882587,0.45882587 0 0 0 0.006,-0.0078 c 1.2128,-1.328304 2.61917,-2.332044 4.23242,-3.023438 a 0.45882587,0.45882587 0 0 0 0.0137,-0.0059 c 1.61397,-0.749343 3.30605,-1.121094 5.09375,-1.121094 z" id="path7"></path>
      </g>
    </g>
  </g>
</svg></svg></g></g></svg>